<svg width="542" height="111" viewBox="0 0 542 111" fill="none" xmlns="http://www.w3.org/2000/svg">
<mask id="mask0_49_432" style="mask-type:alpha" maskUnits="userSpaceOnUse" x="2" y="2" width="538" height="109">
<rect x="2.08508" y="2.4693" width="537.851" height="107.603" fill="url(#paint0_radial_49_432)"/>
</mask>
<g mask="url(#mask0_49_432)">
<path opacity="0.2" d="M189.277 91.4418C96.5415 100.122 44.6724 83.6347 2.23401 62.653V202.674H539.787V22.6416C358.507 8.97913 297.207 81.3396 189.277 91.4418Z" fill="#1C1C1C"/>
<path opacity="0.4" d="M215.556 52.0526C105.781 13.6573 24.9031 74.0626 2.23401 94.7779V202.674H539.787V2.4693C424.293 47.4026 413.116 121.152 215.556 52.0526Z" fill="#A8C5DA"/>
</g>
<path d="M2.23401 62.653C44.6724 83.6346 96.5415 100.122 189.277 91.4417C243.142 86.4 285.393 65.8511 336.74 48.2278" stroke="#1C1C1C" stroke-width="3" stroke-linecap="round" stroke-linejoin="round"/>
<path d="M539.787 22.6415C449.568 15.842 389.066 30.3489 337.744 47.8841" stroke="#1C1C1C" stroke-width="3" stroke-linecap="round" stroke-linejoin="round" stroke-dasharray="3 10"/>
<path d="M2.23401 94.7779C24.9031 74.0626 105.781 13.6573 215.556 52.0526C413.116 121.152 424.293 47.4026 539.787 2.4693" stroke="#A8C5DA" stroke-width="3" stroke-linecap="round" stroke-linejoin="round"/>
<path d="M189.277 91.2978C242.228 86.3417 283.955 66.4007 334.132 48.9841" stroke="#1C1C1C" stroke-width="3" stroke-linecap="round" stroke-linejoin="round"/>
<defs>
<radialGradient id="paint0_radial_49_432" cx="0" cy="0" r="1" gradientTransform="matrix(3.03302 57.8733 -238.989 13.1178 246.747 15.4024)" gradientUnits="userSpaceOnUse">
<stop/>
<stop offset="1" stop-color="#D9D9D9" stop-opacity="0"/>
</radialGradient>
</defs>
</svg>
